<mxfile host="app.diagrams.net" modified="2024-05-28T21:30:59.721Z" agent="Mozilla/5.0 (Windows NT 10.0; Win64; x64) AppleWebKit/537.36 (KHTML, like Gecko) Chrome/125.0.0.0 Safari/537.36" etag="mAROG6oTsExtCGrT71iZ" version="24.4.9" type="device">
  <diagram name="Страница — 1" id="ucPJanvOYCLP0zGzc-VI">
    <mxGraphModel dx="875" dy="503" grid="1" gridSize="10" guides="1" tooltips="1" connect="1" arrows="1" fold="1" page="1" pageScale="1" pageWidth="827" pageHeight="1169" math="0" shadow="0">
      <root>
        <mxCell id="0" />
        <mxCell id="1" parent="0" />
        <mxCell id="pZpTNNk5UrJxjxC9q3l6-26" style="edgeStyle=orthogonalEdgeStyle;rounded=0;orthogonalLoop=1;jettySize=auto;html=1;entryX=0;entryY=0.5;entryDx=0;entryDy=0;" edge="1" parent="1" source="pZpTNNk5UrJxjxC9q3l6-1" target="pZpTNNk5UrJxjxC9q3l6-3">
          <mxGeometry relative="1" as="geometry" />
        </mxCell>
        <mxCell id="pZpTNNk5UrJxjxC9q3l6-1" value="Получения заявки" style="rounded=0;whiteSpace=wrap;html=1;" vertex="1" parent="1">
          <mxGeometry x="210" y="240" width="120" height="60" as="geometry" />
        </mxCell>
        <mxCell id="pZpTNNk5UrJxjxC9q3l6-27" style="edgeStyle=orthogonalEdgeStyle;rounded=0;orthogonalLoop=1;jettySize=auto;html=1;entryX=0;entryY=0.5;entryDx=0;entryDy=0;" edge="1" parent="1" source="pZpTNNk5UrJxjxC9q3l6-3" target="pZpTNNk5UrJxjxC9q3l6-5">
          <mxGeometry relative="1" as="geometry" />
        </mxCell>
        <mxCell id="pZpTNNk5UrJxjxC9q3l6-3" value="Обработка заявки" style="whiteSpace=wrap;html=1;rounded=0;" vertex="1" parent="1">
          <mxGeometry x="390" y="330" width="120" height="60" as="geometry" />
        </mxCell>
        <mxCell id="pZpTNNk5UrJxjxC9q3l6-7" style="edgeStyle=orthogonalEdgeStyle;rounded=0;orthogonalLoop=1;jettySize=auto;html=1;" edge="1" parent="1" source="pZpTNNk5UrJxjxC9q3l6-5">
          <mxGeometry relative="1" as="geometry">
            <mxPoint x="900" y="450" as="targetPoint" />
          </mxGeometry>
        </mxCell>
        <mxCell id="pZpTNNk5UrJxjxC9q3l6-5" value="Регистрация заявки" style="whiteSpace=wrap;html=1;rounded=0;" vertex="1" parent="1">
          <mxGeometry x="560" y="420" width="120" height="60" as="geometry" />
        </mxCell>
        <mxCell id="pZpTNNk5UrJxjxC9q3l6-8" value="Заявка зарегистрирована&lt;span style=&quot;background-color: initial;&quot;&gt;&amp;nbsp;в&lt;/span&gt;&lt;div&gt;&lt;span style=&quot;background-color: initial;&quot;&gt;&amp;nbsp;системе&lt;/span&gt;&lt;/div&gt;" style="text;html=1;align=center;verticalAlign=middle;resizable=0;points=[];autosize=1;strokeColor=none;fillColor=none;" vertex="1" parent="1">
          <mxGeometry x="700" y="410" width="180" height="40" as="geometry" />
        </mxCell>
        <mxCell id="pZpTNNk5UrJxjxC9q3l6-9" value="" style="endArrow=classic;html=1;rounded=0;entryX=-0.013;entryY=0.194;entryDx=0;entryDy=0;entryPerimeter=0;" edge="1" parent="1" target="pZpTNNk5UrJxjxC9q3l6-1">
          <mxGeometry width="50" height="50" relative="1" as="geometry">
            <mxPoint x="80" y="252" as="sourcePoint" />
            <mxPoint x="160" y="220" as="targetPoint" />
          </mxGeometry>
        </mxCell>
        <mxCell id="pZpTNNk5UrJxjxC9q3l6-10" value="Информация о&lt;div&gt;товаре&lt;/div&gt;" style="text;html=1;align=center;verticalAlign=middle;resizable=0;points=[];autosize=1;strokeColor=none;fillColor=none;" vertex="1" parent="1">
          <mxGeometry x="80" y="210" width="110" height="40" as="geometry" />
        </mxCell>
        <mxCell id="pZpTNNk5UrJxjxC9q3l6-11" value="" style="endArrow=classic;html=1;rounded=0;entryX=-0.013;entryY=0.194;entryDx=0;entryDy=0;entryPerimeter=0;" edge="1" parent="1">
          <mxGeometry width="50" height="50" relative="1" as="geometry">
            <mxPoint x="80" y="290" as="sourcePoint" />
            <mxPoint x="208" y="290" as="targetPoint" />
          </mxGeometry>
        </mxCell>
        <mxCell id="pZpTNNk5UrJxjxC9q3l6-12" value="Информация о&amp;nbsp;&lt;div&gt;пользователе&lt;/div&gt;" style="text;html=1;align=center;verticalAlign=middle;resizable=0;points=[];autosize=1;strokeColor=none;fillColor=none;" vertex="1" parent="1">
          <mxGeometry x="80" y="250" width="110" height="40" as="geometry" />
        </mxCell>
        <mxCell id="pZpTNNk5UrJxjxC9q3l6-13" value="" style="endArrow=classic;html=1;rounded=0;entryX=0.3;entryY=1.006;entryDx=0;entryDy=0;entryPerimeter=0;" edge="1" parent="1" target="pZpTNNk5UrJxjxC9q3l6-1">
          <mxGeometry width="50" height="50" relative="1" as="geometry">
            <mxPoint x="246" y="470" as="sourcePoint" />
            <mxPoint x="270" y="420" as="targetPoint" />
          </mxGeometry>
        </mxCell>
        <mxCell id="pZpTNNk5UrJxjxC9q3l6-14" value="Администратор" style="text;html=1;align=center;verticalAlign=middle;resizable=0;points=[];autosize=1;strokeColor=none;fillColor=none;rotation=270;" vertex="1" parent="1">
          <mxGeometry x="380" y="460" width="110" height="30" as="geometry" />
        </mxCell>
        <mxCell id="pZpTNNk5UrJxjxC9q3l6-15" value="Работники" style="text;html=1;align=center;verticalAlign=middle;resizable=0;points=[];autosize=1;strokeColor=none;fillColor=none;rotation=270;" vertex="1" parent="1">
          <mxGeometry x="240" y="368" width="80" height="30" as="geometry" />
        </mxCell>
        <mxCell id="pZpTNNk5UrJxjxC9q3l6-16" value="" style="endArrow=classic;html=1;rounded=0;entryX=0.3;entryY=1.006;entryDx=0;entryDy=0;entryPerimeter=0;" edge="1" parent="1">
          <mxGeometry width="50" height="50" relative="1" as="geometry">
            <mxPoint x="300" y="470" as="sourcePoint" />
            <mxPoint x="300" y="300" as="targetPoint" />
          </mxGeometry>
        </mxCell>
        <mxCell id="pZpTNNk5UrJxjxC9q3l6-18" value="" style="endArrow=classic;html=1;rounded=0;entryX=0.25;entryY=0;entryDx=0;entryDy=0;" edge="1" parent="1">
          <mxGeometry width="50" height="50" relative="1" as="geometry">
            <mxPoint x="250" y="10" as="sourcePoint" />
            <mxPoint x="250" y="240" as="targetPoint" />
          </mxGeometry>
        </mxCell>
        <mxCell id="pZpTNNk5UrJxjxC9q3l6-19" value="Программное обеспечения&amp;nbsp;&lt;div&gt;для учета заявок&lt;/div&gt;" style="text;html=1;align=center;verticalAlign=middle;resizable=0;points=[];autosize=1;strokeColor=none;fillColor=none;rotation=270;" vertex="1" parent="1">
          <mxGeometry x="135" y="100" width="180" height="40" as="geometry" />
        </mxCell>
        <mxCell id="pZpTNNk5UrJxjxC9q3l6-20" value="" style="endArrow=none;html=1;rounded=0;" edge="1" parent="1">
          <mxGeometry width="50" height="50" relative="1" as="geometry">
            <mxPoint x="250" y="170" as="sourcePoint" />
            <mxPoint x="620" y="170" as="targetPoint" />
          </mxGeometry>
        </mxCell>
        <mxCell id="pZpTNNk5UrJxjxC9q3l6-21" value="" style="endArrow=classic;html=1;rounded=0;entryX=0.75;entryY=0;entryDx=0;entryDy=0;" edge="1" parent="1">
          <mxGeometry width="50" height="50" relative="1" as="geometry">
            <mxPoint x="449.58" y="170" as="sourcePoint" />
            <mxPoint x="449.58" y="330" as="targetPoint" />
          </mxGeometry>
        </mxCell>
        <mxCell id="pZpTNNk5UrJxjxC9q3l6-22" value="" style="endArrow=classic;html=1;rounded=0;entryX=0.75;entryY=0;entryDx=0;entryDy=0;" edge="1" parent="1">
          <mxGeometry width="50" height="50" relative="1" as="geometry">
            <mxPoint x="619.58" y="170" as="sourcePoint" />
            <mxPoint x="619.58" y="420" as="targetPoint" />
          </mxGeometry>
        </mxCell>
        <mxCell id="pZpTNNk5UrJxjxC9q3l6-23" value="" style="endArrow=classic;html=1;rounded=0;entryX=0.3;entryY=1.006;entryDx=0;entryDy=0;entryPerimeter=0;" edge="1" parent="1">
          <mxGeometry width="50" height="50" relative="1" as="geometry">
            <mxPoint x="449.58000000000004" y="560" as="sourcePoint" />
            <mxPoint x="449.58000000000004" y="390" as="targetPoint" />
          </mxGeometry>
        </mxCell>
        <mxCell id="pZpTNNk5UrJxjxC9q3l6-24" value="" style="endArrow=none;html=1;rounded=0;" edge="1" parent="1">
          <mxGeometry width="50" height="50" relative="1" as="geometry">
            <mxPoint x="450" y="520" as="sourcePoint" />
            <mxPoint x="620" y="520" as="targetPoint" />
          </mxGeometry>
        </mxCell>
        <mxCell id="pZpTNNk5UrJxjxC9q3l6-25" value="" style="endArrow=classic;html=1;rounded=0;entryX=0.5;entryY=1;entryDx=0;entryDy=0;" edge="1" parent="1" target="pZpTNNk5UrJxjxC9q3l6-5">
          <mxGeometry width="50" height="50" relative="1" as="geometry">
            <mxPoint x="620" y="520" as="sourcePoint" />
            <mxPoint x="510" y="420" as="targetPoint" />
          </mxGeometry>
        </mxCell>
        <mxCell id="pZpTNNk5UrJxjxC9q3l6-28" value="Администратор" style="text;html=1;align=center;verticalAlign=middle;resizable=0;points=[];autosize=1;strokeColor=none;fillColor=none;rotation=270;" vertex="1" parent="1">
          <mxGeometry x="170" y="368" width="110" height="30" as="geometry" />
        </mxCell>
      </root>
    </mxGraphModel>
  </diagram>
</mxfile>
